<svg xmlns="http://www.w3.org/2000/svg" viewBox="0 0 48 48"><defs><style>.cls-1{fill:none;}.cls-2{fill:#e5e1b5;}</style></defs><title>email</title><g id="Layer_2" data-name="Layer 2"><g id="Layer_1-2" data-name="Layer 1"><rect class="cls-1" width="48" height="48"/><path class="cls-2" d="M38.36,16.86a2.79,2.79,0,0,0-2.79-2.79H12.43a2.79,2.79,0,0,0-2.79,2.79V31.14a2.79,2.79,0,0,0,2.79,2.79H35.57a2.79,2.79,0,0,0,2.79-2.79ZM34.58,31.44a.79.79,0,0,1-1.11-.06l-5.9-6.55-3,2.77h0l0,0,0,0,0,0,0,0,0,0,0,0h0l0,0h-.51l0,0h0l0,0,0,0,0,0,0,0,0,0,0,0h0l-3-2.72-6,6.51a.79.79,0,0,1-1.16-1.06h0l6-6.5-5.9-5.37a.79.79,0,0,1,1.06-1.16L24,26l9.52-8.66a.79.79,0,1,1,1.07,1.15h0l-5.85,5.32,5.9,6.55A.79.79,0,0,1,34.58,31.44Z"/></g></g></svg>