<svg xmlns="http://www.w3.org/2000/svg" viewBox="0 0 48 48"><defs><style>.cls-1{fill:#e5e1b5;}.cls-2{fill:none;}</style></defs><title>facebook</title><g id="Layer_2" data-name="Layer 2"><g id="Layer_1-2" data-name="Layer 1"><path class="cls-1" d="M34.23,12.5H13.77a1.27,1.27,0,0,0-1.27,1.27V34.23a1.27,1.27,0,0,0,1.27,1.27h11V26.59h-3V23.12h3V20.56c0-3,1.81-4.59,4.46-4.59a24.5,24.5,0,0,1,2.68.14v3.11H30.09c-1.44,0-1.72.69-1.72,1.7v2.21h3.44l-.45,3.48h-3v8.9h5.86a1.27,1.27,0,0,0,1.27-1.27V13.77a1.27,1.27,0,0,0-1.27-1.27"/><rect class="cls-2" width="48" height="48"/></g></g></svg>