<svg xmlns="http://www.w3.org/2000/svg" viewBox="0 0 48 48"><defs><style>.cls-1{fill:#e5e1b5;}.cls-2{fill:none;}</style></defs><title>googleplus</title><g id="Layer_2" data-name="Layer 2"><g id="Layer_1-2" data-name="Layer 1"><path class="cls-1" d="M18,22.5v3.6h6a5.67,5.67,0,0,1-6,4.53,6.63,6.63,0,0,1,0-13.26A5.91,5.91,0,0,1,22.18,19L25,16.25a10.06,10.06,0,0,0-7-2.74,10.5,10.5,0,1,0,0,21c6.06,0,10.08-4.26,10.08-10.26a9.56,9.56,0,0,0-.16-1.74Zm22.5,0h-3v-3h-3v3h-3v3h3v3h3v-3h3"/><rect class="cls-2" width="48" height="48"/></g></g></svg>