<svg xmlns="http://www.w3.org/2000/svg" viewBox="0 0 320 196"><defs><style>.cls-1{fill:none;}.cls-2{font-size:18px;font-family:Georgia, Georgia;}.cls-2,.cls-4,.cls-6{fill:#53504d;}.cls-3{fill:#e4e2e0;}.cls-5{opacity:0.4;}.cls-6{opacity:0.5;}</style></defs><title>legend3</title><g id="Layer_2" data-name="Layer 2"><g id="outline"><rect class="cls-1" width="320" height="196"/></g><g id="Layer_3" data-name="Layer 3"><text class="cls-2" transform="translate(75.2 183.18)">Woman</text><text class="cls-2" transform="translate(191.42 183.18)">Man</text><rect class="cls-3" x="85.89" y="15.92" width="39.43" height="135.42" rx="2" ry="2"/><path class="cls-4" d="M123.32,16.92a1,1,0,0,1,1,1V149.34a1,1,0,0,1-1,1H87.89a1,1,0,0,1-1-1V17.92a1,1,0,0,1,1-1h35.43m0-2H87.89a3,3,0,0,0-3,3V149.34a3,3,0,0,0,3,3h35.43a3,3,0,0,0,3-3V17.92a3,3,0,0,0-3-3Z"/><g class="cls-5"><path class="cls-4" d="M120.32,152.34H90.89a6,6,0,0,1-6-6V73.61h41.43v72.72A6,6,0,0,1,120.32,152.34Z"/></g><polygon class="cls-6" points="85 46 85.34 36 106 15 116 15 85 46"/><polygon class="cls-6" points="97 151 107 150.66 125.66 132 126 122 97 151"/><polygon class="cls-6" points="85 66 85.34 56 125 17 125 26 85 66"/><polygon class="cls-6" points="85 88 85.34 78 125 39 125 48 85 88"/><polygon class="cls-6" points="85 129 85.34 119 125 80 125 89 85 129"/><polygon class="cls-6" points="85 108 85.34 98 125 59 125 68 85 108"/><polygon class="cls-6" points="86 149 86.34 139 126 100 126 109 86 149"/><rect class="cls-3" x="189.21" y="15.92" width="39.43" height="135.42" rx="2" ry="2"/><path class="cls-4" d="M226.65,16.92a1,1,0,0,1,1,1V149.34a1,1,0,0,1-1,1H191.21a1,1,0,0,1-1-1V17.92a1,1,0,0,1,1-1h35.43m0-2H191.21a3,3,0,0,0-3,3V149.34a3,3,0,0,0,3,3h35.43a3,3,0,0,0,3-3V17.92a3,3,0,0,0-3-3Z"/><g class="cls-5"><path class="cls-4" d="M223.65,152.34H194.21a6,6,0,0,1-6-6V73.61h41.43v72.72A6,6,0,0,1,223.65,152.34Z"/></g></g></g></svg>