<svg xmlns="http://www.w3.org/2000/svg" viewBox="0 0 320 196"><defs><style>.cls-1{fill:none;}.cls-2{font-size:18px;font-family:Georgia, Georgia;}.cls-2,.cls-4{fill:#53504d;}.cls-3{fill:#e4e2e0;}.cls-5{opacity:0.4;}</style></defs><title>legend4</title><g id="Layer_2" data-name="Layer 2"><g id="outline"><rect class="cls-1" width="320" height="196"/></g><g id="Layer_4" data-name="Layer 4"><text class="cls-2" transform="translate(18.16 183.18)">NYT Best Seller</text><text class="cls-2" transform="translate(171.25 183.18)">Translated Book</text><rect class="cls-3" x="60.61" y="15.92" width="39.43" height="135.42" rx="2" ry="2"/><path class="cls-4" d="M98,16.92a1,1,0,0,1,1,1V149.34a1,1,0,0,1-1,1H62.61a1,1,0,0,1-1-1V17.92a1,1,0,0,1,1-1H98m0-2H62.61a3,3,0,0,0-3,3V149.34a3,3,0,0,0,3,3H98a3,3,0,0,0,3-3V17.92a3,3,0,0,0-3-3Z"/><g class="cls-5"><path class="cls-4" d="M95,152.34H65.61a6,6,0,0,1-6-6V73.61H101v72.72A6,6,0,0,1,95,152.34Z"/></g><rect class="cls-3" x="216.94" y="15.92" width="39.43" height="135.42" rx="2" ry="2"/><path class="cls-4" d="M254.37,16.92a1,1,0,0,1,1,1V149.34a1,1,0,0,1-1,1H218.94a1,1,0,0,1-1-1V17.92a1,1,0,0,1,1-1h35.43m0-2H218.94a3,3,0,0,0-3,3V149.34a3,3,0,0,0,3,3h35.43a3,3,0,0,0,3-3V17.92a3,3,0,0,0-3-3Z"/><g class="cls-5"><path class="cls-4" d="M251.37,152.34H221.94a6,6,0,0,1-6-6V73.61h41.43v72.72A6,6,0,0,1,251.37,152.34Z"/></g><polygon class="cls-4" points="80.33 117.93 84.93 115.48 86.88 120.31 91.97 121.39 90.36 126.35 93.57 130.46 89.15 133.22 88.97 138.43 83.81 137.7 80.33 141.57 76.84 137.7 71.68 138.43 71.5 133.22 67.08 130.46 70.29 126.35 68.67 121.39 73.77 120.31 75.72 115.48 80.33 117.93"/><path class="cls-4" d="M215.94,38.12V21a6,6,0,0,1,6-6H242L217.64,38.84A1,1,0,0,1,215.94,38.12Z"/></g></g></svg>