<svg xmlns="http://www.w3.org/2000/svg" viewBox="0 0 320 196"><defs><style>.cls-1,.cls-6{fill:none;}.cls-2{fill:#e4e2e0;}.cls-3,.cls-5{fill:#53504d;}.cls-4{opacity:0.4;}.cls-5{font-size:18px;font-family:Georgia, Georgia;}.cls-6{stroke:#b8b5b2;stroke-miterlimit:10;}.cls-7{fill:#b8b5b2;}</style></defs><title>legend1</title><g id="Layer_2" data-name="Layer 2"><g id="outline"><rect class="cls-1" width="320" height="196"/></g><g id="Layer_1-2" data-name="Layer 1"><rect class="cls-2" x="132.45" y="15.92" width="39.43" height="135.42" rx="4.73" ry="4.73"/><path class="cls-3" d="M167.15,16.92a3.73,3.73,0,0,1,3.73,3.73v126a3.73,3.73,0,0,1-3.73,3.73h-30a3.73,3.73,0,0,1-3.73-3.73v-126a3.73,3.73,0,0,1,3.73-3.73h30m0-2h-30a5.73,5.73,0,0,0-5.73,5.73v126a5.73,5.73,0,0,0,5.73,5.73h30a5.73,5.73,0,0,0,5.73-5.73v-126a5.73,5.73,0,0,0-5.73-5.73Z"/><rect class="cls-2" x="132.45" y="15.92" width="39.43" height="135.42" rx="4.73" ry="4.73"/><path class="cls-3" d="M167.15,16.92a3.73,3.73,0,0,1,3.73,3.73v126a3.73,3.73,0,0,1-3.73,3.73h-30a3.73,3.73,0,0,1-3.73-3.73v-126a3.73,3.73,0,0,1,3.73-3.73h30m0-2h-30a5.73,5.73,0,0,0-5.73,5.73v126a5.73,5.73,0,0,0,5.73,5.73h30a5.73,5.73,0,0,0,5.73-5.73v-126a5.73,5.73,0,0,0-5.73-5.73Z"/><rect class="cls-2" x="132.45" y="15.92" width="39.43" height="135.42" rx="2" ry="2"/><path class="cls-3" d="M169.88,16.92a1,1,0,0,1,1,1V149.34a1,1,0,0,1-1,1H134.45a1,1,0,0,1-1-1V17.92a1,1,0,0,1,1-1h35.43m0-2H134.45a3,3,0,0,0-3,3V149.34a3,3,0,0,0,3,3h35.43a3,3,0,0,0,3-3V17.92a3,3,0,0,0-3-3Z"/><g class="cls-4"><path class="cls-3" d="M169.88,152.34H134.45a3,3,0,0,1-3-3V73.61h41.43v75.72A3,3,0,0,1,169.88,152.34Z"/></g><text class="cls-5" transform="translate(14.77 31.1)">GoodReads<tspan x="33.98" y="21.6" xml:space="preserve"> Rating</tspan></text><text class="cls-5" transform="translate(196.06 88.35)">Age of Author<tspan x="0" y="21.6">at Publication</tspan></text><text class="cls-5" transform="translate(131.06 184.18)">Number of Pages</text><line class="cls-1" x1="123.85" y1="14.92" x2="123.85" y2="152.34"/><line class="cls-2" x1="117.95" y1="14.92" x2="117.95" y2="152.34"/><line class="cls-6" x1="117.95" y1="22.1" x2="117.95" y2="152.34"/><polygon class="cls-7" points="112.96 23.55 117.95 14.92 122.93 23.55 112.96 23.55"/><line class="cls-2" x1="186" y1="73.27" x2="186" y2="152.34"/><line class="cls-6" x1="186" y1="80.45" x2="186" y2="152.34"/><polygon class="cls-7" points="181.01 81.91 186 73.27 190.99 81.91 181.01 81.91"/><line class="cls-2" x1="131.27" y1="163.83" x2="172.53" y2="163.83"/><line class="cls-6" x1="131.27" y1="163.83" x2="165.36" y2="163.83"/><polygon class="cls-7" points="163.9 168.82 172.53 163.83 163.9 158.84 163.9 168.82"/><rect class="cls-1" y="15.39" width="320" height="180.61"/></g></g></svg>