<svg xmlns="http://www.w3.org/2000/svg" viewBox="0 0 320 196"><defs><style>.cls-1{fill:none;}.cls-2{font-size:18px;font-family:Georgia, Georgia;}.cls-2,.cls-4{fill:#53504d;}.cls-3{fill:#91d8b6;}.cls-5{opacity:0.4;}.cls-6{fill:#f48876;}</style></defs><title>legend2</title><g id="Layer_2" data-name="Layer 2"><g id="outline"><rect class="cls-1" width="320" height="196"/></g><g id="Layer_2-2" data-name="Layer 2"><text class="cls-2" transform="translate(77.6 183.18)">Fiction</text><text class="cls-2" transform="translate(166.29 183.18)">Nonfiction</text><rect class="cls-3" x="85.91" y="15.92" width="39.43" height="135.42" rx="2" ry="2"/><path class="cls-4" d="M123.34,16.92a1,1,0,0,1,1,1V149.34a1,1,0,0,1-1,1H87.91a1,1,0,0,1-1-1V17.92a1,1,0,0,1,1-1h35.43m0-2H87.91a3,3,0,0,0-3,3V149.34a3,3,0,0,0,3,3h35.43a3,3,0,0,0,3-3V17.92a3,3,0,0,0-3-3Z"/><g class="cls-5"><path class="cls-4" d="M120.34,152.34H90.91a6,6,0,0,1-6-6V73.61h41.43v72.72A6,6,0,0,1,120.34,152.34Z"/></g><rect class="cls-6" x="189.21" y="15.92" width="39.43" height="135.42" rx="2" ry="2"/><path class="cls-4" d="M226.65,16.92a1,1,0,0,1,1,1V149.34a1,1,0,0,1-1,1H191.21a1,1,0,0,1-1-1V17.92a1,1,0,0,1,1-1h35.43m0-2H191.21a3,3,0,0,0-3,3V149.34a3,3,0,0,0,3,3h35.43a3,3,0,0,0,3-3V17.92a3,3,0,0,0-3-3Z"/><g class="cls-5"><path class="cls-4" d="M223.65,152.34H194.21a6,6,0,0,1-6-6V73.61h41.43v72.72A6,6,0,0,1,223.65,152.34Z"/></g></g></g></svg>