<svg xmlns="http://www.w3.org/2000/svg" viewBox="0 0 99.93 99.93"><defs><style>.cls-1{fill:#b8b5b2;}</style></defs><title>link</title><g id="Layer_2" data-name="Layer 2"><g id="Layer_1-2" data-name="Layer 1"><path class="cls-1" d="M80.87,51.24a6.36,6.36,0,0,0-6.36,6.35v27a2.65,2.65,0,0,1-2.65,2.65H15.36a2.66,2.66,0,0,1-2.65-2.65V28.07a2.66,2.66,0,0,1,2.65-2.65h27a6.35,6.35,0,1,0,0-12.71h-27A15.38,15.38,0,0,0,0,28.07v56.5A15.38,15.38,0,0,0,15.36,99.93h56.5A15.38,15.38,0,0,0,87.22,84.57v-27A6.35,6.35,0,0,0,80.87,51.24Z"/><path class="cls-1" d="M84.57,0H58.23a6.36,6.36,0,0,0,0,12.71h20L36.06,54.88a6.35,6.35,0,0,0,9,9L87.22,21.7v20a6.36,6.36,0,0,0,12.71,0V15.36A15.38,15.38,0,0,0,84.57,0Z"/></g></g></svg>