<svg xmlns="http://www.w3.org/2000/svg" viewBox="0 0 48 48"><defs><style>.cls-1{fill:#e5e1b5;}.cls-2{fill:none;}</style></defs><title>linkedin</title><g id="Layer_2" data-name="Layer 2"><g id="Layer_1-2" data-name="Layer 1"><path class="cls-1" d="M32.1,32.1H28.69V26.76c0-1.27,0-2.91-1.77-2.91s-2,1.39-2,2.82V32.1H21.46v-11h3.27v1.49h0A3.59,3.59,0,0,1,28,20.85c3.45,0,4.09,2.27,4.09,5.23v6ZM17.61,19.62a2,2,0,1,1,2-2A2,2,0,0,1,17.61,19.62ZM19.32,32.1H15.91v-11h3.42ZM33.8,12.5H14.2a1.68,1.68,0,0,0-1.7,1.66V33.84a1.68,1.68,0,0,0,1.7,1.66H33.8a1.68,1.68,0,0,0,1.7-1.66V14.16a1.68,1.68,0,0,0-1.7-1.66Z"/><rect class="cls-2" width="48" height="48"/></g></g></svg>