<svg xmlns="http://www.w3.org/2000/svg" viewBox="0 0 48 48"><defs><style>.cls-1{fill:#e5e1b5;}.cls-2{fill:none;}</style></defs><title>medium</title><g id="Layer_2" data-name="Layer 2"><g id="Layer_1-2" data-name="Layer 1"><path class="cls-1" d="M30,30.81l-.43.7,1.24.62L35,34.26a1.46,1.46,0,0,0,.65.17.69.69,0,0,0,.73-.76V20.33L30,30.81Zm6.37-13.47s0,0,0,0l-7.5-3.75a.79.79,0,0,0-.29-.07l-.07,0a.85.85,0,0,0-.73.39l-.37.61-.78,1.27-2.94,4.79,2.94,4.78.78,1.26.78,1.26.92,1.48,7.32-11.87a.08.08,0,0,0,0-.12ZM26.58,28.29,22.73,22l-.46-.74-.46-.74-.39-.65v7.56L26.59,30l.78.39.78.39-.78-1.26-.78-1.26ZM12.73,13.8l-.23-.11a.85.85,0,0,0-.37-.1c-.32,0-.54.25-.54.66V30a1.37,1.37,0,0,0,.69,1.11l6.44,3.23a.93.93,0,0,0,.47.12c.4,0,.68-.31.68-.82V17.42a.08.08,0,0,0,0-.07L12.73,13.8Z"/><rect class="cls-2" width="48" height="48"/></g></g></svg>