<svg xmlns="http://www.w3.org/2000/svg" viewBox="0 0 48 48"><defs><style>.cls-1{fill:#e5e1b5;}.cls-2{fill:none;}</style></defs><title>twitter</title><g id="Layer_2" data-name="Layer 2"><g id="Layer_1-2" data-name="Layer 1"><path class="cls-1" d="M38.26,15.14a11.83,11.83,0,0,1-3.37.92,5.9,5.9,0,0,0,2.58-3.25,12.12,12.12,0,0,1-3.73,1.41,5.87,5.87,0,0,0-10.15,4,6,6,0,0,0,.15,1.34,16.64,16.64,0,0,1-12.1-6.11,5.76,5.76,0,0,0-.79,3,5.87,5.87,0,0,0,2.61,4.88,5.86,5.86,0,0,1-2.66-.73v.07a5.87,5.87,0,0,0,4.71,5.76,6,6,0,0,1-1.55.2,5.78,5.78,0,0,1-1.09-.1,5.88,5.88,0,0,0,5.49,4.08,11.76,11.76,0,0,1-7.28,2.51A12.16,12.16,0,0,1,9.69,33a16.68,16.68,0,0,0,9,2.64c10.8,0,16.7-8.94,16.7-16.68,0-.25,0-.5,0-.75a11.85,11.85,0,0,0,2.93-3Z"/><rect class="cls-2" width="48" height="48"/></g></g></svg>